<svg xmlns="http://www.w3.org/2000/svg" id="svg9" width="37.796" height="24.52" fill="none" fill-rule="evenodd" stroke="#000" stroke-linejoin="bevel" stroke-miterlimit="10" stroke-width=".501" font-family="Times New Roman" font-size="16" overflow="visible" style="font-variant-ligatures:none" viewBox="29.659 -466.683 28.347 18.39"><g id="Layer 1" transform="scale(1 -1)"><g id="text6" aria-label="{#}" style="font-size:21.088px;font-family:&quot;Open Sans&quot;;fill:#000;stroke:none;stroke-width:.22;stroke-linecap:round;stroke-linejoin:round" transform="matrix(1 0 0 -1 29.031 451.629)"><path id="path823" d="M4.891-.124q0 1.05.597 1.524.608.474 1.771.495v1.441q-1.956-.02-3.027-.896-1.07-.875-1.07-2.46v-3.12q0-1.071-.65-1.524-.648-.464-1.884-.464V-6.58q1.339-.02 1.936-.494t.597-1.462v-3.151q0-1.596 1.112-2.482 1.112-.885 2.986-.885v1.431q-2.368.062-2.368 2.05v3.037q0 2.214-2.296 2.615v.124q2.296.401 2.296 2.615z"/><path id="path825" d="m18.092-9.257-.68 3.501h2.914v1.328h-3.161L16.3 0h-1.41l.864-4.428h-3.12L11.79 0h-1.4l.823-4.428H8.516v-1.328h2.955l.7-3.5H9.319v-1.309h3.078l.845-4.489h1.431l-.844 4.49h3.14l.865-4.49h1.38l-.865 4.49h2.718v1.307zm-5.21 3.501h3.12l.679-3.5h-3.12z"/><path id="path827" d="M26.988-5.92q-2.296-.402-2.296-2.616v-3.038q0-1.987-2.337-2.049v-1.431q1.894 0 2.975.896 1.092.896 1.092 2.471v3.15q0 1 .607 1.473.608.464 1.946.484v1.452q-1.256 0-1.905.464-.648.453-.648 1.523v3.12q0 1.576-1.06 2.451-1.051.886-3.007.906V1.895q1.142-.021 1.74-.495.597-.473.597-1.524v-3.058q0-1.174.566-1.791.567-.618 1.73-.824z"/></g></g></svg>